<mxfile host="app.diagrams.net" agent="Mozilla/5.0 (Windows NT 10.0; Win64; x64) AppleWebKit/537.36 (KHTML, like Gecko) Chrome/135.0.0.0 Safari/537.36" version="26.2.12">
  <diagram name="Page-1" id="p0YDvsh7QNqSFHnZl73u">
    <mxGraphModel dx="1844" dy="1514" grid="1" gridSize="10" guides="1" tooltips="1" connect="1" arrows="1" fold="1" page="1" pageScale="1" pageWidth="850" pageHeight="1100" math="0" shadow="0">
      <root>
        <mxCell id="0" />
        <mxCell id="1" parent="0" />
        <mxCell id="F39CgizQga_5vMlTlAWY-1" value="&lt;font style=&quot;font-size: 21px;&quot;&gt;Login Process&lt;/font&gt;" style="text;html=1;align=center;verticalAlign=middle;whiteSpace=wrap;rounded=0;" vertex="1" parent="1">
          <mxGeometry x="390" y="50" width="150" height="30" as="geometry" />
        </mxCell>
        <mxCell id="F39CgizQga_5vMlTlAWY-2" value="Users" style="swimlane;fontStyle=0;childLayout=stackLayout;horizontal=1;startSize=30;horizontalStack=0;resizeParent=1;resizeParentMax=0;resizeLast=0;collapsible=1;marginBottom=0;whiteSpace=wrap;html=1;" vertex="1" parent="1">
          <mxGeometry x="90" y="40" width="140" height="390" as="geometry" />
        </mxCell>
        <mxCell id="F39CgizQga_5vMlTlAWY-3" value="id_ktp" style="text;strokeColor=none;fillColor=none;align=left;verticalAlign=middle;spacingLeft=4;spacingRight=4;overflow=hidden;points=[[0,0.5],[1,0.5]];portConstraint=eastwest;rotatable=0;whiteSpace=wrap;html=1;" vertex="1" parent="F39CgizQga_5vMlTlAWY-2">
          <mxGeometry y="30" width="140" height="30" as="geometry" />
        </mxCell>
        <mxCell id="F39CgizQga_5vMlTlAWY-4" value="nama_lengkap" style="text;strokeColor=none;fillColor=none;align=left;verticalAlign=middle;spacingLeft=4;spacingRight=4;overflow=hidden;points=[[0,0.5],[1,0.5]];portConstraint=eastwest;rotatable=0;whiteSpace=wrap;html=1;" vertex="1" parent="F39CgizQga_5vMlTlAWY-2">
          <mxGeometry y="60" width="140" height="30" as="geometry" />
        </mxCell>
        <mxCell id="F39CgizQga_5vMlTlAWY-5" value="tempat_tanggal_lahir" style="text;strokeColor=none;fillColor=none;align=left;verticalAlign=middle;spacingLeft=4;spacingRight=4;overflow=hidden;points=[[0,0.5],[1,0.5]];portConstraint=eastwest;rotatable=0;whiteSpace=wrap;html=1;" vertex="1" parent="F39CgizQga_5vMlTlAWY-2">
          <mxGeometry y="90" width="140" height="30" as="geometry" />
        </mxCell>
        <mxCell id="F39CgizQga_5vMlTlAWY-10" value="jenis_kelamin" style="text;strokeColor=none;fillColor=none;align=left;verticalAlign=middle;spacingLeft=4;spacingRight=4;overflow=hidden;points=[[0,0.5],[1,0.5]];portConstraint=eastwest;rotatable=0;whiteSpace=wrap;html=1;" vertex="1" parent="F39CgizQga_5vMlTlAWY-2">
          <mxGeometry y="120" width="140" height="30" as="geometry" />
        </mxCell>
        <mxCell id="F39CgizQga_5vMlTlAWY-11" value="alamat" style="text;strokeColor=none;fillColor=none;align=left;verticalAlign=middle;spacingLeft=4;spacingRight=4;overflow=hidden;points=[[0,0.5],[1,0.5]];portConstraint=eastwest;rotatable=0;whiteSpace=wrap;html=1;" vertex="1" parent="F39CgizQga_5vMlTlAWY-2">
          <mxGeometry y="150" width="140" height="30" as="geometry" />
        </mxCell>
        <mxCell id="F39CgizQga_5vMlTlAWY-12" value="rt_rw" style="text;strokeColor=none;fillColor=none;align=left;verticalAlign=middle;spacingLeft=4;spacingRight=4;overflow=hidden;points=[[0,0.5],[1,0.5]];portConstraint=eastwest;rotatable=0;whiteSpace=wrap;html=1;" vertex="1" parent="F39CgizQga_5vMlTlAWY-2">
          <mxGeometry y="180" width="140" height="30" as="geometry" />
        </mxCell>
        <mxCell id="F39CgizQga_5vMlTlAWY-13" value="kelurahan" style="text;strokeColor=none;fillColor=none;align=left;verticalAlign=middle;spacingLeft=4;spacingRight=4;overflow=hidden;points=[[0,0.5],[1,0.5]];portConstraint=eastwest;rotatable=0;whiteSpace=wrap;html=1;" vertex="1" parent="F39CgizQga_5vMlTlAWY-2">
          <mxGeometry y="210" width="140" height="30" as="geometry" />
        </mxCell>
        <mxCell id="F39CgizQga_5vMlTlAWY-14" value="kecamatan" style="text;strokeColor=none;fillColor=none;align=left;verticalAlign=middle;spacingLeft=4;spacingRight=4;overflow=hidden;points=[[0,0.5],[1,0.5]];portConstraint=eastwest;rotatable=0;whiteSpace=wrap;html=1;" vertex="1" parent="F39CgizQga_5vMlTlAWY-2">
          <mxGeometry y="240" width="140" height="30" as="geometry" />
        </mxCell>
        <mxCell id="F39CgizQga_5vMlTlAWY-15" value="agama" style="text;strokeColor=none;fillColor=none;align=left;verticalAlign=middle;spacingLeft=4;spacingRight=4;overflow=hidden;points=[[0,0.5],[1,0.5]];portConstraint=eastwest;rotatable=0;whiteSpace=wrap;html=1;" vertex="1" parent="F39CgizQga_5vMlTlAWY-2">
          <mxGeometry y="270" width="140" height="30" as="geometry" />
        </mxCell>
        <mxCell id="F39CgizQga_5vMlTlAWY-16" value="status_perkawinan" style="text;strokeColor=none;fillColor=none;align=left;verticalAlign=middle;spacingLeft=4;spacingRight=4;overflow=hidden;points=[[0,0.5],[1,0.5]];portConstraint=eastwest;rotatable=0;whiteSpace=wrap;html=1;" vertex="1" parent="F39CgizQga_5vMlTlAWY-2">
          <mxGeometry y="300" width="140" height="30" as="geometry" />
        </mxCell>
        <mxCell id="F39CgizQga_5vMlTlAWY-17" value="pekerjaan" style="text;strokeColor=none;fillColor=none;align=left;verticalAlign=middle;spacingLeft=4;spacingRight=4;overflow=hidden;points=[[0,0.5],[1,0.5]];portConstraint=eastwest;rotatable=0;whiteSpace=wrap;html=1;" vertex="1" parent="F39CgizQga_5vMlTlAWY-2">
          <mxGeometry y="330" width="140" height="30" as="geometry" />
        </mxCell>
        <mxCell id="F39CgizQga_5vMlTlAWY-18" value="kewarganegaraan" style="text;strokeColor=none;fillColor=none;align=left;verticalAlign=middle;spacingLeft=4;spacingRight=4;overflow=hidden;points=[[0,0.5],[1,0.5]];portConstraint=eastwest;rotatable=0;whiteSpace=wrap;html=1;" vertex="1" parent="F39CgizQga_5vMlTlAWY-2">
          <mxGeometry y="360" width="140" height="30" as="geometry" />
        </mxCell>
        <mxCell id="F39CgizQga_5vMlTlAWY-19" value="Wallets" style="swimlane;fontStyle=0;childLayout=stackLayout;horizontal=1;startSize=30;horizontalStack=0;resizeParent=1;resizeParentMax=0;resizeLast=0;collapsible=1;marginBottom=0;whiteSpace=wrap;html=1;" vertex="1" parent="1">
          <mxGeometry x="-70" y="40" width="140" height="90" as="geometry" />
        </mxCell>
        <mxCell id="F39CgizQga_5vMlTlAWY-20" value="wallet_address" style="text;strokeColor=none;fillColor=none;align=left;verticalAlign=middle;spacingLeft=4;spacingRight=4;overflow=hidden;points=[[0,0.5],[1,0.5]];portConstraint=eastwest;rotatable=0;whiteSpace=wrap;html=1;" vertex="1" parent="F39CgizQga_5vMlTlAWY-19">
          <mxGeometry y="30" width="140" height="30" as="geometry" />
        </mxCell>
        <mxCell id="F39CgizQga_5vMlTlAWY-21" value="id_ktp" style="text;strokeColor=none;fillColor=none;align=left;verticalAlign=middle;spacingLeft=4;spacingRight=4;overflow=hidden;points=[[0,0.5],[1,0.5]];portConstraint=eastwest;rotatable=0;whiteSpace=wrap;html=1;" vertex="1" parent="F39CgizQga_5vMlTlAWY-19">
          <mxGeometry y="60" width="140" height="30" as="geometry" />
        </mxCell>
        <mxCell id="F39CgizQga_5vMlTlAWY-28" style="edgeStyle=orthogonalEdgeStyle;rounded=0;orthogonalLoop=1;jettySize=auto;html=1;exitX=0.5;exitY=1;exitDx=0;exitDy=0;" edge="1" parent="1" source="F39CgizQga_5vMlTlAWY-23" target="F39CgizQga_5vMlTlAWY-26">
          <mxGeometry relative="1" as="geometry" />
        </mxCell>
        <mxCell id="F39CgizQga_5vMlTlAWY-23" value="&lt;font style=&quot;font-size: 15px;&quot;&gt;Start&lt;/font&gt;" style="ellipse;whiteSpace=wrap;html=1;" vertex="1" parent="1">
          <mxGeometry x="425" y="110" width="80" height="45" as="geometry" />
        </mxCell>
        <mxCell id="F39CgizQga_5vMlTlAWY-30" style="edgeStyle=orthogonalEdgeStyle;rounded=0;orthogonalLoop=1;jettySize=auto;html=1;" edge="1" parent="1" source="F39CgizQga_5vMlTlAWY-26" target="F39CgizQga_5vMlTlAWY-29">
          <mxGeometry relative="1" as="geometry" />
        </mxCell>
        <mxCell id="F39CgizQga_5vMlTlAWY-26" value="&lt;font size=&quot;1&quot;&gt;User Connect&amp;nbsp;&lt;/font&gt;&lt;div&gt;&lt;font size=&quot;1&quot;&gt;MetaMask&lt;/font&gt;&lt;/div&gt;" style="rounded=0;whiteSpace=wrap;html=1;" vertex="1" parent="1">
          <mxGeometry x="405" y="210" width="120" height="60" as="geometry" />
        </mxCell>
        <mxCell id="F39CgizQga_5vMlTlAWY-32" style="edgeStyle=orthogonalEdgeStyle;rounded=0;orthogonalLoop=1;jettySize=auto;html=1;exitX=0.5;exitY=1;exitDx=0;exitDy=0;entryX=0.5;entryY=0;entryDx=0;entryDy=0;" edge="1" parent="1" source="F39CgizQga_5vMlTlAWY-29" target="F39CgizQga_5vMlTlAWY-31">
          <mxGeometry relative="1" as="geometry" />
        </mxCell>
        <mxCell id="F39CgizQga_5vMlTlAWY-29" value="&lt;font size=&quot;1&quot;&gt;Verifikasi Wallet dengan&lt;/font&gt;&lt;div&gt;&lt;font size=&quot;1&quot;&gt;ID KTP&lt;/font&gt;&lt;/div&gt;" style="rounded=0;whiteSpace=wrap;html=1;" vertex="1" parent="1">
          <mxGeometry x="405" y="320" width="120" height="60" as="geometry" />
        </mxCell>
        <mxCell id="F39CgizQga_5vMlTlAWY-34" style="edgeStyle=orthogonalEdgeStyle;rounded=0;orthogonalLoop=1;jettySize=auto;html=1;exitX=0.5;exitY=1;exitDx=0;exitDy=0;entryX=1;entryY=0.5;entryDx=0;entryDy=0;" edge="1" parent="1" source="F39CgizQga_5vMlTlAWY-31" target="F39CgizQga_5vMlTlAWY-33">
          <mxGeometry relative="1" as="geometry">
            <Array as="points">
              <mxPoint x="465" y="515" />
            </Array>
          </mxGeometry>
        </mxCell>
        <mxCell id="F39CgizQga_5vMlTlAWY-36" style="edgeStyle=orthogonalEdgeStyle;rounded=0;orthogonalLoop=1;jettySize=auto;html=1;exitX=1;exitY=0.5;exitDx=0;exitDy=0;entryX=0;entryY=0.5;entryDx=0;entryDy=0;" edge="1" parent="1" source="F39CgizQga_5vMlTlAWY-31" target="F39CgizQga_5vMlTlAWY-35">
          <mxGeometry relative="1" as="geometry" />
        </mxCell>
        <mxCell id="F39CgizQga_5vMlTlAWY-31" value="Is wallet&lt;div&gt;registered&lt;/div&gt;&lt;div&gt;with ID KTP&lt;/div&gt;" style="rhombus;whiteSpace=wrap;html=1;" vertex="1" parent="1">
          <mxGeometry x="410" y="460" width="110" height="110" as="geometry" />
        </mxCell>
        <mxCell id="F39CgizQga_5vMlTlAWY-41" style="edgeStyle=orthogonalEdgeStyle;rounded=0;orthogonalLoop=1;jettySize=auto;html=1;exitX=0.446;exitY=0.988;exitDx=0;exitDy=0;exitPerimeter=0;entryX=0;entryY=0.5;entryDx=0;entryDy=0;" edge="1" parent="1" target="F39CgizQga_5vMlTlAWY-40">
          <mxGeometry relative="1" as="geometry">
            <mxPoint x="239.99999999999997" y="544.9999999999998" as="sourcePoint" />
            <mxPoint x="376.48" y="700.778823529412" as="targetPoint" />
            <Array as="points">
              <mxPoint x="270" y="545" />
              <mxPoint x="270" y="630" />
            </Array>
          </mxGeometry>
        </mxCell>
        <mxCell id="F39CgizQga_5vMlTlAWY-33" value="&lt;font size=&quot;1&quot;&gt;Display&amp;nbsp;&lt;/font&gt;&lt;div&gt;&lt;font size=&quot;1&quot;&gt;Registration&amp;nbsp;&lt;/font&gt;&lt;span style=&quot;font-size: x-small; background-color: transparent; color: light-dark(rgb(0, 0, 0), rgb(255, 255, 255));&quot;&gt;Form&lt;/span&gt;&lt;/div&gt;" style="rounded=0;whiteSpace=wrap;html=1;" vertex="1" parent="1">
          <mxGeometry x="210" y="485" width="120" height="60" as="geometry" />
        </mxCell>
        <mxCell id="F39CgizQga_5vMlTlAWY-45" style="edgeStyle=orthogonalEdgeStyle;rounded=0;orthogonalLoop=1;jettySize=auto;html=1;entryX=0.5;entryY=0;entryDx=0;entryDy=0;" edge="1" parent="1" source="F39CgizQga_5vMlTlAWY-35" target="F39CgizQga_5vMlTlAWY-44">
          <mxGeometry relative="1" as="geometry">
            <mxPoint x="760" y="700" as="targetPoint" />
            <Array as="points">
              <mxPoint x="760" y="515" />
              <mxPoint x="760" y="700" />
              <mxPoint x="465" y="700" />
            </Array>
          </mxGeometry>
        </mxCell>
        <mxCell id="F39CgizQga_5vMlTlAWY-35" value="&lt;font size=&quot;1&quot;&gt;Validate Digital ID KTP Signature&lt;/font&gt;" style="rounded=0;whiteSpace=wrap;html=1;" vertex="1" parent="1">
          <mxGeometry x="600" y="485" width="120" height="60" as="geometry" />
        </mxCell>
        <mxCell id="F39CgizQga_5vMlTlAWY-37" value="Yes" style="text;html=1;align=center;verticalAlign=middle;whiteSpace=wrap;rounded=0;" vertex="1" parent="1">
          <mxGeometry x="525" y="485" width="60" height="30" as="geometry" />
        </mxCell>
        <mxCell id="F39CgizQga_5vMlTlAWY-38" value="No" style="text;html=1;align=center;verticalAlign=middle;whiteSpace=wrap;rounded=0;" vertex="1" parent="1">
          <mxGeometry x="345" y="485" width="60" height="30" as="geometry" />
        </mxCell>
        <mxCell id="F39CgizQga_5vMlTlAWY-42" style="edgeStyle=orthogonalEdgeStyle;rounded=0;orthogonalLoop=1;jettySize=auto;html=1;entryX=0.5;entryY=1;entryDx=0;entryDy=0;" edge="1" parent="1" source="F39CgizQga_5vMlTlAWY-40" target="F39CgizQga_5vMlTlAWY-35">
          <mxGeometry relative="1" as="geometry">
            <mxPoint x="660" y="570" as="targetPoint" />
          </mxGeometry>
        </mxCell>
        <mxCell id="F39CgizQga_5vMlTlAWY-40" value="&lt;font size=&quot;1&quot;&gt;Check ID KTP in&amp;nbsp;&lt;/font&gt;&lt;div&gt;&lt;font size=&quot;1&quot;&gt;Proof Of Human&lt;/font&gt;&lt;/div&gt;&lt;div&gt;&lt;font size=&quot;1&quot;&gt;Database&lt;/font&gt;&lt;/div&gt;" style="rounded=0;whiteSpace=wrap;html=1;" vertex="1" parent="1">
          <mxGeometry x="405" y="600" width="120" height="60" as="geometry" />
        </mxCell>
        <mxCell id="F39CgizQga_5vMlTlAWY-50" style="edgeStyle=orthogonalEdgeStyle;rounded=0;orthogonalLoop=1;jettySize=auto;html=1;exitX=1;exitY=0.5;exitDx=0;exitDy=0;entryX=0;entryY=0.5;entryDx=0;entryDy=0;" edge="1" parent="1" source="F39CgizQga_5vMlTlAWY-44" target="F39CgizQga_5vMlTlAWY-48">
          <mxGeometry relative="1" as="geometry" />
        </mxCell>
        <mxCell id="F39CgizQga_5vMlTlAWY-51" style="edgeStyle=orthogonalEdgeStyle;rounded=0;orthogonalLoop=1;jettySize=auto;html=1;exitX=0;exitY=0.5;exitDx=0;exitDy=0;entryX=1;entryY=0.5;entryDx=0;entryDy=0;" edge="1" parent="1" source="F39CgizQga_5vMlTlAWY-44" target="F39CgizQga_5vMlTlAWY-55">
          <mxGeometry relative="1" as="geometry" />
        </mxCell>
        <mxCell id="F39CgizQga_5vMlTlAWY-44" value="Is ID KTP&amp;nbsp;&lt;div&gt;Found In&amp;nbsp;&lt;/div&gt;&lt;div&gt;Database?&lt;/div&gt;" style="rhombus;whiteSpace=wrap;html=1;" vertex="1" parent="1">
          <mxGeometry x="410" y="750" width="110" height="110" as="geometry" />
        </mxCell>
        <mxCell id="F39CgizQga_5vMlTlAWY-57" style="edgeStyle=orthogonalEdgeStyle;rounded=0;orthogonalLoop=1;jettySize=auto;html=1;entryX=1;entryY=0.5;entryDx=0;entryDy=0;" edge="1" parent="1" source="F39CgizQga_5vMlTlAWY-48" target="F39CgizQga_5vMlTlAWY-56">
          <mxGeometry relative="1" as="geometry">
            <mxPoint x="660" y="940" as="targetPoint" />
            <Array as="points">
              <mxPoint x="660" y="932" />
            </Array>
          </mxGeometry>
        </mxCell>
        <mxCell id="F39CgizQga_5vMlTlAWY-48" value="&lt;font size=&quot;1&quot;&gt;Register In&amp;nbsp;&lt;/font&gt;&lt;div&gt;&lt;font size=&quot;1&quot;&gt;Smart Contract&lt;/font&gt;&lt;/div&gt;" style="rounded=0;whiteSpace=wrap;html=1;" vertex="1" parent="1">
          <mxGeometry x="600" y="775" width="120" height="60" as="geometry" />
        </mxCell>
        <mxCell id="F39CgizQga_5vMlTlAWY-49" value="&lt;font size=&quot;1&quot;&gt;Return Error:&amp;nbsp;&lt;br&gt;&quot;Kamu harus melakukan&lt;/font&gt;&lt;div&gt;&lt;font size=&quot;1&quot;&gt;verifikasi data di pos&lt;/font&gt;&lt;/div&gt;&lt;div&gt;&lt;font size=&quot;1&quot;&gt;terdekat untuk bisa&amp;nbsp;&lt;/font&gt;&lt;/div&gt;&lt;div&gt;&lt;font size=&quot;1&quot;&gt;melakukan voting online&lt;/font&gt;&lt;/div&gt;" style="rounded=0;whiteSpace=wrap;html=1;" vertex="1" parent="1">
          <mxGeometry x="90" y="740" width="120" height="130" as="geometry" />
        </mxCell>
        <mxCell id="F39CgizQga_5vMlTlAWY-52" value="No" style="text;html=1;align=center;verticalAlign=middle;whiteSpace=wrap;rounded=0;" vertex="1" parent="1">
          <mxGeometry x="340" y="775" width="60" height="30" as="geometry" />
        </mxCell>
        <mxCell id="F39CgizQga_5vMlTlAWY-53" value="Yes" style="text;html=1;align=center;verticalAlign=middle;whiteSpace=wrap;rounded=0;" vertex="1" parent="1">
          <mxGeometry x="525" y="775" width="60" height="30" as="geometry" />
        </mxCell>
        <mxCell id="F39CgizQga_5vMlTlAWY-55" value="&lt;font style=&quot;font-size: 15px;&quot;&gt;End&lt;/font&gt;" style="ellipse;whiteSpace=wrap;html=1;" vertex="1" parent="1">
          <mxGeometry x="230" y="782.5" width="80" height="45" as="geometry" />
        </mxCell>
        <mxCell id="F39CgizQga_5vMlTlAWY-56" value="&lt;font&gt;Login App&lt;/font&gt;" style="ellipse;whiteSpace=wrap;html=1;" vertex="1" parent="1">
          <mxGeometry x="425" y="910" width="80" height="45" as="geometry" />
        </mxCell>
      </root>
    </mxGraphModel>
  </diagram>
</mxfile>
